<?xml version="1.0" encoding="UTF-8" standalone="no"?>
<!DOCTYPE svg PUBLIC "-//W3C//DTD SVG 1.1//EN" "http://www.w3.org/Graphics/SVG/1.1/DTD/svg11.dtd">
<svg version="1.1" xmlns="http://www.w3.org/2000/svg" xmlns:xlink="http://www.w3.org/1999/xlink" preserveAspectRatio="xMidYMid meet" viewBox="0 0 300 249" width="300" height="249"><defs><path d="M69.25 50.55C88.97 50.48 107.63 60.45 119.18 77.23C122.3 81.77 121.32 88.09 116.98 91.36C112.65 94.63 106.6 93.6 103.48 89.06C95.58 77.58 82.81 70.75 69.31 70.79C46.21 70.87 27.47 90.62 27.55 114.81C27.63 139 46.49 158.62 69.6 158.54C83.09 158.49 95.82 151.57 103.65 140.03C106.74 135.47 112.78 134.4 117.13 137.64C121.49 140.88 122.51 147.2 119.42 151.76C107.99 168.61 89.39 178.72 69.67 178.79C35.9 178.9 8.33 150.23 8.21 114.88C8.1 79.52 35.48 50.66 69.25 50.55Z" id="b4EjaYg7Lw"></path><path d="M156.17 123.98C149.93 123.96 100.08 123.82 93.85 123.81C87.78 123.79 82.87 119.24 82.88 113.65C82.9 108.06 87.83 103.54 93.9 103.56C100.14 103.58 149.99 103.71 156.22 103.73C162.29 103.75 167.2 108.29 167.19 113.88C167.18 119.47 162.24 123.99 156.17 123.98Z" id="c14YpKRd58"></path><path d="M196.2 90.47C196.23 95.12 196.5 132.27 196.54 136.91C196.57 141.44 192.2 145.14 186.79 145.18C181.37 145.23 176.95 141.59 176.92 137.07C176.89 132.42 176.62 95.27 176.58 90.62C176.55 86.1 180.91 82.39 186.33 82.35C191.75 82.31 196.17 85.95 196.2 90.47Z" id="d7JhITlnap"></path><path d="M191.38 49.37C211.1 49.3 229.77 59.27 241.31 76.05C244.43 80.59 243.45 86.91 239.12 90.18C234.78 93.45 228.74 92.42 225.62 87.88C217.72 76.4 204.94 69.57 191.45 69.61C168.34 69.69 149.61 89.44 149.69 113.63C149.77 137.82 168.63 157.44 191.74 157.36C205.23 157.31 217.96 150.39 225.78 138.85C228.87 134.29 234.91 133.22 239.27 136.46C243.62 139.7 244.65 146.02 241.55 150.58C230.12 167.43 211.52 177.54 191.8 177.61C158.03 177.72 130.46 149.05 130.35 113.7C130.23 78.34 157.61 49.48 191.38 49.37Z" id="g6i2mC9Nj2"></path><path d="M278.3 122.51C272.07 122.5 222.22 122.36 215.99 122.34C209.91 122.33 205 117.78 205.02 112.19C205.03 106.6 209.97 102.08 216.04 102.09C222.27 102.11 272.12 102.25 278.35 102.26C284.43 102.28 289.34 106.83 289.32 112.42C289.31 118.01 284.38 122.53 278.3 122.51Z" id="a252OTGSXw"></path><path d="M75 91.09C75.04 95.73 75.31 132.88 75.34 137.53C75.37 142.05 71.01 145.76 65.59 145.8C60.18 145.84 55.76 142.2 55.72 137.68C55.69 133.04 55.42 95.88 55.39 91.24C55.35 86.71 59.72 83.01 65.14 82.97C70.55 82.92 74.97 86.56 75 91.09Z" id="a1VuQnOLu"></path></defs><g><g><g><use xlink:href="#b4EjaYg7Lw" opacity="1" fill="#039cf9" fill-opacity="1"></use><g><use xlink:href="#b4EjaYg7Lw" opacity="1" fill-opacity="0" stroke="#000000" stroke-width="1" stroke-opacity="0"></use></g></g><g><use xlink:href="#c14YpKRd58" opacity="1" fill="#039cf9" fill-opacity="1"></use><g><use xlink:href="#c14YpKRd58" opacity="1" fill-opacity="0" stroke="#000000" stroke-width="1" stroke-opacity="0"></use></g></g><g><use xlink:href="#d7JhITlnap" opacity="1" fill="#039cf9" fill-opacity="1"></use><g><use xlink:href="#d7JhITlnap" opacity="1" fill-opacity="0" stroke="#000000" stroke-width="1" stroke-opacity="0"></use></g></g><g><use xlink:href="#g6i2mC9Nj2" opacity="1" fill="#039cf9" fill-opacity="1"></use><g><use xlink:href="#g6i2mC9Nj2" opacity="1" fill-opacity="0" stroke="#000000" stroke-width="1" stroke-opacity="0"></use></g></g><g><use xlink:href="#a252OTGSXw" opacity="1" fill="#039cf9" fill-opacity="1"></use><g><use xlink:href="#a252OTGSXw" opacity="1" fill-opacity="0" stroke="#000000" stroke-width="1" stroke-opacity="0"></use></g></g><g><use xlink:href="#a1VuQnOLu" opacity="1" fill="#039cf9" fill-opacity="1"></use><g><use xlink:href="#a1VuQnOLu" opacity="1" fill-opacity="0" stroke="#000000" stroke-width="1" stroke-opacity="0"></use></g></g></g></g></svg>